#define bars_width 16
#define bars_height 24
static char bars_bits[] = {
   0x00, 0x00, 0x00, 0x00, 0x00, 0x00, 0x00, 0x00, 0x00, 0x00, 0x00, 0x00,
   0x98, 0x19, 0x98, 0x19, 0x98, 0x19, 0x98, 0x19, 0x98, 0x19, 0x98, 0x19,
   0x98, 0x19, 0x98, 0x19, 0x98, 0x19, 0x98, 0x19, 0x98, 0x19, 0x98, 0x19,
   0x00, 0x00, 0x00, 0x00, 0x00, 0x00, 0x00, 0x00, 0x00, 0x00, 0x00, 0x00};
