#define color_width 24
#define color_height 24
static char color_bits[] = {
   0x00, 0x00, 0x00, 0x00, 0x00, 0x00, 0x00, 0x3e, 0x00, 0x00, 0x41, 0x00,
   0x80, 0x80, 0x00, 0x40, 0x00, 0x01, 0x40, 0x00, 0x01, 0x40, 0x00, 0x01,
   0x40, 0x00, 0x01, 0x40, 0x00, 0x01, 0x80, 0x80, 0x00, 0xf0, 0xc1, 0x07,
   0xf8, 0xbf, 0x0c, 0xfc, 0x57, 0x12, 0xfe, 0x2f, 0x29, 0xfe, 0x9f, 0x24,
   0xfe, 0x4f, 0x32, 0xfe, 0x2f, 0x29, 0xfe, 0x9f, 0x24, 0xfc, 0x57, 0x12,
   0xf8, 0x23, 0x09, 0xf0, 0xc1, 0x07, 0x00, 0x00, 0x00, 0x00, 0x00, 0x00};
