#define neww_width 24
#define neww_height 24
static char neww_bits[] = {
   0x00, 0x00, 0x00, 0x00, 0x00, 0x00, 0x00, 0x00, 0x00, 0x00, 0x00, 0x00,
   0x00, 0x00, 0x00, 0x00, 0x00, 0x00, 0x00, 0x1c, 0x00, 0x00, 0x1c, 0x00,
   0x00, 0x1c, 0x00, 0x00, 0x08, 0x00, 0x00, 0x1c, 0x00, 0x00, 0x2a, 0x00,
   0x00, 0x49, 0x00, 0x80, 0x88, 0x00, 0x40, 0x08, 0x01, 0xe0, 0x9c, 0x03,
   0xe0, 0x9c, 0x03, 0xe0, 0x9c, 0x03, 0x00, 0x00, 0x00, 0x00, 0x00, 0x00,
   0x00, 0x00, 0x00, 0x00, 0x00, 0x00, 0x00, 0x00, 0x00, 0x00, 0x00, 0x00};
