#define outof_width 16
#define outof_height 24
static char outof_bits[] = {
   0x00, 0x00, 0x00, 0x00, 0x00, 0x00, 0x00, 0x00, 0x00, 0x00, 0xe0, 0x43,
   0x10, 0x4c, 0x08, 0x50, 0x04, 0x60, 0x04, 0x7c, 0x02, 0x00, 0x02, 0x00,
   0x82, 0x01, 0x02, 0x02, 0x04, 0x02, 0x04, 0x02, 0x18, 0x01, 0xe0, 0x00,
   0x00, 0x00, 0x00, 0x00, 0x00, 0x00, 0x00, 0x00, 0x00, 0x00, 0x00, 0x00};
