#define redo_width 24
#define redo_height 24
static char redo_bits[] = {
   0x00, 0x00, 0x00, 0x00, 0x00, 0x00, 0x00, 0x00, 0x00, 0x00, 0x00, 0x00,
   0x00, 0x00, 0x00, 0x00, 0x00, 0x00, 0xe0, 0xff, 0x07, 0x20, 0x00, 0x04,
   0x20, 0xf8, 0x05, 0x20, 0x08, 0x05, 0x20, 0x08, 0x05, 0x20, 0x08, 0x05,
   0x20, 0xf8, 0x05, 0x20, 0x00, 0x04, 0x20, 0x00, 0x04, 0x20, 0x00, 0x04,
   0xe0, 0xff, 0x07, 0x00, 0x00, 0x00, 0x00, 0x00, 0x00, 0x00, 0x00, 0x00,
   0x00, 0x00, 0x00, 0x00, 0x00, 0x00, 0x00, 0x00, 0x00, 0x00, 0x00, 0x00};
