#define reset_width 16
#define reset_height 24
static char reset_bits[] = {
   0x00, 0x00, 0x00, 0x00, 0x00, 0x00, 0x00, 0x00, 0x00, 0x00, 0x00, 0x00,
   0x00, 0x00, 0x60, 0x30, 0x70, 0x38, 0x78, 0x3c, 0x7c, 0x3e, 0x7e, 0x3f,
   0x7c, 0x3e, 0x78, 0x3c, 0x70, 0x38, 0x60, 0x30, 0x00, 0x00, 0x00, 0x00,
   0x00, 0x00, 0x00, 0x00, 0x00, 0x00, 0x00, 0x00, 0x00, 0x00, 0x00, 0x00};
