/* XPM */
static const char *left_chevron20x20[] = {
/* columns rows colors chars-per-pixel */
"20 20 2 1 ",
"  c None",
". c #010101",
/* pixels */
"            .       ",
"           ...      ",
"          .....     ",
"         ......     ",
"        ......      ",
"       ......       ",
"      ......        ",
"     ......         ",
"    ......          ",
"   ......           ",
"   ......           ",
"    ......          ",
"     ......         ",
"      ......        ",
"       ......       ",
"        ......      ",
"         ......     ",
"          .....     ",
"           ...      ",
"            .       "
};
